HIERARCHY
ROOT Hips
{
	OFFSET 0.000000 0.000000 0.000000 
	CHANNELS 6 Xposition Yposition Zposition Zrotation Yrotation Xrotation
	JOINT LeftUpLeg
	{
		OFFSET 1.363060 -1.794630 0.839290 
		CHANNELS 3 Zrotation Yrotation Xrotation
		JOINT LeftLeg
		{
			OFFSET 2.448110 -6.726130 0.000000 
			CHANNELS 3 Zrotation Yrotation Xrotation
			JOINT LeftFoot
			{
				OFFSET 2.562200 -7.039590 0.000000 
				CHANNELS 3 Zrotation Yrotation Xrotation
				JOINT LeftToeBase
				{
					OFFSET 0.157640 -0.433110 2.322550 
					CHANNELS 3 Zrotation Yrotation Xrotation
					End Site
					{
						OFFSET 0.000000 0.000000 0.000000 
					}
				}
			}
		}
	}
	JOINT RightUpLeg
	{
		OFFSET -1.305520 -1.794630 0.839290 
		CHANNELS 3 Zrotation Yrotation Xrotation
		JOINT RightLeg
		{
			OFFSET -2.542530 -6.985550 0.000000 
			CHANNELS 3 Zrotation Yrotation Xrotation
			JOINT RightFoot
			{
				OFFSET -2.568260 -7.056230 0.000000 
				CHANNELS 3 Zrotation Yrotation Xrotation
				JOINT RightToeBase
				{
					OFFSET -0.164730 -0.452590 2.363150 
					CHANNELS 3 Zrotation Yrotation Xrotation
					End Site
					{
						OFFSET 0.000000 0.000000 0.000000 
					}
				}
			}
		}
	}
	JOINT Spine
	{
		OFFSET 0.028270 2.035590 -0.193380 
		CHANNELS 3 Zrotation Yrotation Xrotation
		JOINT Spine1
		{
			OFFSET 0.056720 2.048850 -0.042750 
			CHANNELS 3 Zrotation Yrotation Xrotation
			JOINT Neck1
			{
				OFFSET -0.054170 1.746240 0.172020 
				CHANNELS 3 Zrotation Yrotation Xrotation
				JOINT Head
				{
					OFFSET 0.104070 1.761360 -0.123970 
					CHANNELS 3 Zrotation Yrotation Xrotation
					End Site
					{
						OFFSET 0.000000 0.000000 0.000000 
					}
				}
			}
			JOINT LeftArm
			{
				OFFSET 3.362410 1.200890 -0.311210 
				CHANNELS 3 Zrotation Yrotation Xrotation
				JOINT LeftForeArm
				{
					OFFSET 4.983000 -0.000000 -0.000000 
					CHANNELS 3 Zrotation Yrotation Xrotation
					JOINT LeftHand
					{
						OFFSET 3.483560 -0.000000 -0.000000 
						CHANNELS 3 Zrotation Yrotation Xrotation
						JOINT LeftHandIndex1
						{
							OFFSET 0.715260 -0.000000 -0.000000 
							CHANNELS 3 Zrotation Yrotation Xrotation
							End Site
							{
								OFFSET 0.000000 0.000000 0.000000 
							}
						}
					}
				}
			}
			JOINT RightArm
			{
				OFFSET -3.136600 1.374050 -0.404650 
				CHANNELS 3 Zrotation Yrotation Xrotation
				JOINT RightForeArm
				{
					OFFSET -5.241900 -0.000000 -0.000000 
					CHANNELS 3 Zrotation Yrotation Xrotation
					JOINT RightHand
					{
						OFFSET -3.444170 -0.000000 -0.000000 
						CHANNELS 3 Zrotation Yrotation Xrotation
						JOINT RightHandIndex1
						{
							OFFSET -0.622530 -0.000000 -0.000000 
							CHANNELS 3 Zrotation Yrotation Xrotation
							End Site
							{
								OFFSET 0.000000 0.000000 0.000000 
							}
						}
					}
				}
			}
		}
	}
}
MOTION
Frames: 15
Frame Time: 0.041667
22.985507 17.581364 -1.326753 177.686191 -84.921438 -171.655353 -18.586794 -13.554904 -24.340050 1.800748 12.583442 33.579160 -3.173466 12.741322 6.645495 0.564500 -4.812300 -13.374100 32.411369 1.607537 -10.417444 -2.054719 -9.801318 30.010859 -0.774809 -1.623471 -13.786093 -0.177700 2.715600 -7.488000 -0.194106 4.950982 -4.148902 -3.096561 2.285543 -8.458495 6.984562 -4.922882 4.266025 4.273300 -2.276400 2.717700 -96.789326 3.209764 -13.793653 19.672512 -30.285523 -8.310484 2.792222 3.394366 15.704207 -7.125000 0.000000 0.000000 96.289313 -0.786202 -11.782346 -15.147074 29.336718 -5.467388 -2.041131 1.990727 5.585616 7.125000 0.000000 0.000000 
22.877054 17.623547 -1.287235 174.449385 -84.902131 -168.273408 -19.117969 -13.459256 -24.046982 1.771790 12.520042 33.394622 -3.540132 13.513180 6.214358 0.905500 -6.064000 -16.970400 32.019427 1.458452 -9.715573 -1.900025 -9.486340 29.121724 -0.667008 -1.963776 -13.682474 -0.219800 3.017900 -8.328700 -0.182575 4.964484 -4.112271 -2.881276 2.310499 -7.962214 6.942336 -4.959594 4.299659 4.218400 -2.296300 2.674300 -97.834151 6.403348 -10.070360 23.721539 -34.627290 -10.060290 2.369799 3.592553 13.595514 -7.125000 0.000000 0.000000 96.352123 -0.707482 -12.783416 -14.837073 28.904121 -5.345242 -2.024916 2.006394 5.739292 7.125000 0.000000 0.000000 
22.771486 17.652742 -1.245385 171.053794 -84.847957 -164.780803 -19.687651 -13.371714 -23.862443 1.795345 12.526124 33.471622 -3.714135 13.876294 6.008106 1.083900 -6.617000 -18.585600 31.573261 1.444820 -9.046880 -1.777540 -9.222737 28.393122 -0.576412 -2.254293 -13.612399 -0.257800 3.266800 -9.022500 -0.193077 4.982743 -4.128992 -2.730139 2.324729 -7.815551 6.847761 -5.016917 4.474707 4.132400 -2.330700 2.743800 -97.948438 6.491161 -10.207788 23.445413 -34.424328 -9.951040 2.471118 3.540982 13.779251 -7.125000 0.000000 0.000000 96.542880 -0.867310 -13.717930 -14.604226 28.577540 -5.260803 -2.026973 2.018027 5.807482 7.125000 0.000000 0.000000 
22.666363 17.682824 -1.204535 167.180621 -84.926229 -160.846739 -20.194279 -13.453425 -23.601918 1.824242 12.533013 33.628045 -3.623841 13.626348 5.858849 0.975700 -6.288200 -17.623000 31.140064 1.451042 -8.240652 -1.622399 -8.902329 27.502795 -0.437776 -2.721028 -13.575611 -0.281300 3.411400 -9.426300 -0.205071 4.914907 -4.166607 -2.609269 2.289426 -7.793363 6.787477 -5.104652 4.690583 4.082100 -2.383100 2.836700 -98.051409 6.584446 -10.413635 23.181776 -34.195024 -9.800609 2.445127 3.543181 14.093045 -7.125000 0.000000 0.000000 96.750272 -1.114984 -14.542894 -14.407737 28.305370 -5.188244 -2.038795 2.017472 5.863972 7.125000 0.000000 0.000000 
22.560240 17.710687 -1.166570 160.927983 -85.198191 -154.710262 -20.849743 -13.499297 -23.127766 1.856691 12.514391 33.824630 -3.345286 12.923535 5.695897 0.862200 -5.921200 -16.556000 30.567255 1.522249 -7.299583 -1.494936 -8.645606 26.809501 -0.321825 -3.235178 -13.988250 -0.228400 3.076100 -8.490700 -0.243299 4.902801 -4.207842 -2.525663 2.272615 -7.935701 6.856651 -5.321918 4.728484 4.075500 -2.498200 2.796600 -97.890178 6.891380 -10.070527 22.980169 -34.042835 -9.668781 2.339642 3.572373 14.345343 -7.125000 0.000000 0.000000 97.178661 -1.502004 -15.647343 -14.361082 28.159784 -5.151836 -2.057983 1.998130 5.813834 7.125000 0.000000 0.000000 
22.455450 17.756311 -1.127718 154.914306 -85.392485 -148.809244 -21.603854 -13.151770 -22.936826 1.903035 12.518036 34.036024 -3.169056 12.506946 5.776341 1.068900 -6.572600 -18.455300 29.995587 1.767673 -6.368670 -1.384419 -8.431296 26.237563 -0.234828 -3.710894 -14.612095 -0.143300 2.439300 -6.721300 -0.303896 5.041668 -4.260088 -2.534117 2.326438 -8.140906 6.859940 -5.664526 4.776730 3.992200 -2.675900 2.770500 -97.515098 7.384817 -9.158185 22.830458 -33.985467 -9.589357 2.260370 3.584471 14.250168 -7.125000 0.000000 0.000000 97.777294 -1.923658 -17.010794 -14.431088 28.102395 -5.134087 -2.060832 1.977292 5.694459 7.125000 0.000000 0.000000 
22.353435 17.760085 -1.082316 150.518243 -85.515284 -144.412355 -22.227242 -12.789831 -22.700775 1.911552 12.478112 34.103256 -2.920480 11.912607 5.806732 1.085600 -6.622000 -18.600200 29.574565 2.061970 -5.748621 -1.308422 -8.323806 25.950569 -0.063243 -4.433906 -15.081205 -0.185900 2.777300 -7.659300 -0.345119 5.102627 -4.296033 -2.536674 2.346098 -8.160158 6.787915 -5.918910 5.012083 3.906700 -2.811800 2.862500 -97.280539 7.718628 -8.538325 22.698485 -33.941085 -9.540699 2.236862 3.594263 14.077772 -7.125000 0.000000 0.000000 98.194701 -2.278861 -17.990568 -14.475975 28.058354 -5.110645 -2.053770 1.958293 5.490932 7.125000 0.000000 0.000000 
22.252085 17.758753 -1.031808 145.726966 -85.650708 -139.623147 -22.882259 -12.521223 -22.382187 1.908456 12.420969 34.118438 -2.668182 11.306921 5.815890 1.024800 -6.439600 -18.065500 29.148814 2.203112 -5.330647 -1.267107 -8.302054 25.902066 0.168182 -5.320224 -15.428771 -0.369600 3.905200 -10.810200 -0.376779 5.042306 -4.303844 -2.514800 2.305837 -8.042717 6.781534 -6.054200 5.211415 3.900600 -2.886700 2.930400 -97.206091 7.854481 -8.294852 22.610123 -33.909665 -9.510377 2.229302 3.607251 14.035083 -7.125000 0.000000 0.000000 98.478908 -2.646164 -18.455111 -14.589942 28.155414 -5.121874 -2.060818 1.918056 4.981089 7.125000 0.000000 0.000000 
22.155620 17.755534 -0.978414 141.862148 -85.717755 -135.688878 -23.474680 -12.301662 -22.059206 1.875674 12.335714 34.005437 -2.441411 10.757865 5.785240 0.942900 -6.184700 -17.321200 28.742034 2.549360 -5.137233 -1.283017 -8.402008 26.190846 0.335857 -6.022660 -15.890300 -0.477900 4.433300 -12.299000 -0.396785 4.982472 -4.298241 -2.420817 2.275679 -7.857412 6.769992 -6.150381 5.286953 3.902200 -2.938500 2.938700 -97.243929 7.883717 -8.037420 22.602595 -33.948028 -9.498751 2.211649 3.618794 13.925365 -7.125000 0.000000 0.000000 98.596773 -2.970704 -18.510574 -14.802479 28.373863 -5.164477 -2.082852 1.838498 4.099266 7.125000 0.000000 0.000000 
22.061931 17.750539 -0.921467 139.398834 -85.645088 -133.198745 -24.068220 -12.013630 -21.718526 1.845604 12.261191 33.901320 -2.277602 10.340979 5.645264 0.895900 -6.032700 -16.879300 28.317100 2.965050 -4.911242 -1.317845 -8.511879 26.531516 0.431964 -6.493170 -16.386855 -0.487900 4.478700 -12.427500 -0.412780 4.993720 -4.283773 -2.282866 2.290058 -7.657802 6.736766 -6.206279 5.360962 3.893300 -2.969700 2.951900 -97.323174 7.891732 -7.646489 22.640724 -34.039559 -9.505572 2.201818 3.623941 13.773830 -7.125000 0.000000 0.000000 98.564292 -3.271841 -18.320154 -15.056798 28.638818 -5.224500 -2.115534 1.735826 3.054240 7.125000 0.000000 0.000000 
21.969240 17.743767 -0.861191 137.543955 -85.536288 -131.427904 -24.676908 -11.625798 -21.290734 1.817136 12.180734 33.789190 -2.133706 9.967352 5.490238 0.883600 -5.992100 -16.761600 27.883257 3.177418 -4.632688 -1.366113 -8.621150 26.902590 0.494458 -6.851660 -16.885527 -0.510400 4.579400 -12.712600 -0.431592 5.047187 -4.266200 -2.186391 2.324226 -7.491490 6.662466 -6.236457 5.507183 3.854700 -2.989400 3.009800 -97.362304 7.910039 -7.204725 22.667236 -34.126204 -9.520740 2.207109 3.627189 13.713305 -7.125000 0.000000 0.000000 98.558030 -3.614767 -18.135954 -15.354997 28.951566 -5.299144 -2.142085 1.637759 2.239390 7.125000 0.000000 0.000000 
21.875661 17.736774 -0.799804 136.508212 -85.385010 -130.507111 -25.244571 -11.124354 -20.859424 1.785938 12.093770 33.662523 -1.955493 9.514945 5.336817 0.844000 -5.859900 -16.378500 27.456407 3.344517 -4.304570 -1.431444 -8.725977 27.287485 0.514491 -7.007638 -17.174439 -0.432900 4.222500 -11.703400 -0.441213 5.107116 -4.250836 -2.047711 2.368439 -7.327093 6.533167 -6.273220 5.837815 3.784500 -3.016100 3.181800 -97.443726 7.901032 -6.868194 22.639414 -34.167169 -9.522946 2.243041 3.624217 13.765225 -7.125000 0.000000 0.000000 98.512160 -3.983701 -17.941879 -15.647002 29.249106 -5.367050 -2.151414 1.554590 1.685037 7.125000 0.000000 0.000000 
21.782860 17.731001 -0.736974 135.727395 -85.077297 -129.905096 -25.910721 -10.529481 -20.375604 1.755231 12.004010 33.537537 -1.764000 9.023971 5.115629 0.769300 -5.600900 -15.630600 26.876028 3.500236 -3.899529 -1.521686 -8.828723 27.698737 0.476047 -6.901174 -17.234783 -0.344200 3.769900 -10.430300 -0.454132 5.196196 -4.216102 -1.847371 2.434519 -7.128897 6.371943 -6.337563 6.175095 3.699500 -3.057000 3.365000 -97.569771 7.759764 -6.647055 22.533030 -34.120759 -9.476182 2.276684 3.617893 13.934048 -7.125000 0.000000 0.000000 98.375197 -4.332889 -17.636936 -15.929127 29.541313 -5.442364 -2.154912 1.490242 1.175183 7.125000 0.000000 0.000000 
21.700160 17.726672 -0.676475 134.818625 -84.789202 -129.156835 -26.531803 -9.979947 -19.958820 1.725851 11.918363 33.416647 -1.539734 8.468114 4.946601 0.709000 -5.381300 -14.999500 26.328277 3.610145 -3.633667 -1.613878 -8.953066 28.156276 0.497389 -6.972499 -17.224612 -0.349800 3.800100 -10.515100 -0.488810 5.268032 -4.201952 -1.820714 2.474434 -7.061922 6.180386 -6.430009 6.399656 3.581000 -3.108900 3.498800 -97.539263 7.642272 -6.327076 22.398218 -34.023111 -9.407638 2.281311 3.609669 14.130116 -7.125000 0.000000 0.000000 98.413631 -4.742833 -17.287510 -16.292711 29.966440 -5.562440 -2.161019 1.446306 0.707258 7.125000 0.000000 0.000000 
21.627672 17.720234 -0.620417 134.555226 -84.590246 -128.973094 -26.963665 -9.541516 -19.656474 1.698987 11.846459 33.306047 -1.304072 7.901901 4.862981 0.638700 -5.113000 -14.231000 25.936711 3.699614 -3.582005 -1.704736 -9.112176 28.680996 0.503642 -7.091610 -17.539452 -0.409500 4.108200 -11.381200 -0.510052 5.322678 -4.198329 -1.785258 2.507655 -7.004027 6.013648 -6.512016 6.703346 3.465800 -3.152900 3.708600 -97.417240 7.606600 -5.626501 22.247758 -33.952495 -9.354657 2.315346 3.590654 14.310085 -7.125000 0.000000 0.000000 98.482284 -5.116224 -16.947751 -16.708463 30.435064 -5.699751 -2.161361 1.409339 0.403470 7.125000 0.000000 0.000000 
